<svg width="25" height="22" viewBox="0 0 25 22" fill="none" xmlns="http://www.w3.org/2000/svg">
<path d="M21.2913 3.61183C20.7805 3.10083 20.1741 2.69547 19.5066 2.41891C18.8392 2.14235 18.1238 2 17.4013 2C16.6788 2 15.9634 2.14235 15.2959 2.41891C14.6285 2.69547 14.022 3.10083 13.5113 3.61183L12.4513 4.67183L11.3913 3.61183C10.3596 2.58013 8.96032 2.00053 7.50129 2.00053C6.04226 2.00053 4.64298 2.58013 3.61129 3.61183C2.5796 4.64352 2 6.04279 2 7.50183C2 8.96086 2.5796 10.3601 3.61129 11.3918L12.4513 20.2318L21.2913 11.3918C21.8023 10.8811 22.2076 10.2746 22.4842 9.60718C22.7608 8.93972 22.9031 8.22431 22.9031 7.50183C22.9031 6.77934 22.7608 6.06393 22.4842 5.39647C22.2076 4.72901 21.8023 4.12258 21.2913 3.61183Z" stroke="#1E1E1E" stroke-width="2.5" stroke-linecap="round" stroke-linejoin="round"/>
</svg>
